<svg width="80" height="66" viewBox="0 0 80 66" fill="none" xmlns="http://www.w3.org/2000/svg">
<g id="Group 2081">
<g id="Group 1177">
<rect id="Rectangle 800" x="52.6133" y="42.9354" width="27.3676" height="14.9851" rx="1.46196" transform="rotate(11.7355 52.6133 42.9354)" fill="#21D373"/>
<rect id="Rectangle 802" x="55.9062" y="39.455" width="4.20925" height="6.38097" rx="1.46196" transform="rotate(11.7355 55.9062 39.455)" fill="#21D373"/>
<rect id="Rectangle 803" x="64.9688" y="41.0482" width="4.20925" height="6.38097" rx="1.46196" transform="rotate(11.7355 64.9688 41.0482)" fill="#21D373"/>
<rect id="Rectangle 804" x="74.0332" y="42.6415" width="4.20925" height="6.38097" rx="1.46196" transform="rotate(11.7355 74.0332 42.6415)" fill="#21D373"/>
</g>
<g id="Group 1178">
<rect id="Rectangle 800_2" x="3.13477" y="46.5934" width="27.3676" height="14.9851" rx="1.46196" transform="rotate(-6.81379 3.13477 46.5934)" fill="#FF3B6A"/>
<rect id="Rectangle 802_2" x="5.14844" y="42.2462" width="4.20925" height="6.38096" rx="1.46196" transform="rotate(-6.81379 5.14844 42.2462)" fill="#FF3B6A"/>
<rect id="Rectangle 803_2" x="14.248" y="40.8733" width="4.20925" height="6.38096" rx="1.46196" transform="rotate(-6.81379 14.248 40.8733)" fill="#FF3B6A"/>
<rect id="Rectangle 804_2" x="23.3477" y="39.5004" width="4.20925" height="6.38096" rx="1.46196" transform="rotate(-6.81379 23.3477 39.5004)" fill="#FF3B6A"/>
</g>
<g id="Group 1179">
<rect id="Rectangle 801" x="52.043" y="26.7441" width="33.0585" height="18.8919" rx="1.46196" transform="rotate(93.2048 52.043 26.7441)" fill="#21D373"/>
<path id="Vector 422" d="M41.1154 29.5179C38.9109 29.8664 38.883 33.5047 39.1913 37.5621C39.2168 37.8986 39.5425 38.1454 39.9225 38.1179L43.5279 37.8569C43.9134 37.829 44.2117 37.5299 44.1895 37.1882C43.9812 33.9951 43.2836 29.1751 41.1154 29.5179Z" fill="#F3FF69"/>
<path id="Vector 423" d="M43.299 43.9652C41.389 43.7643 40.4922 47.2078 39.7734 51.1299C39.7138 51.4552 39.9243 51.7677 40.2457 51.8332L43.2952 52.4547C43.6213 52.5212 43.9403 52.3094 44.0039 51.98C44.598 48.9018 45.1775 44.1628 43.299 43.9652Z" fill="#F3FF69"/>
</g>
<g id="Group 1180">
<path id="Vector 419" d="M49.4837 9.3088L33.8703 21.1488C33.1419 21.7011 33.3694 22.8498 34.2533 23.0827L55.6061 28.7113C56.4468 28.9329 57.1987 28.1348 56.9273 27.3088L51.1879 9.84022C50.9529 9.12499 50.0836 8.8539 49.4837 9.3088Z" fill="#FF3B6A"/>
<path id="Vector 420" d="M52.8316 0.421509L50.6387 9.74153" stroke="#FF3B6A" stroke-width="0.730982" stroke-linecap="round" stroke-linejoin="round"/>
<path id="Vector 421" d="M59.0237 2.58672L52.6492 1.15247L51.5527 6.26934L57.5495 7.89008C57.8506 7.97145 58.1087 7.66263 57.9752 7.38079L56.8163 4.93422C56.7338 4.76009 56.8006 4.55184 56.9691 4.45826L59.1209 3.26279C59.4144 3.09973 59.3512 2.66042 59.0237 2.58672Z" fill="#FF3B6A"/>
</g>
</g>
</svg>
