<svg width="92" height="91" viewBox="0 0 92 91" fill="none" xmlns="http://www.w3.org/2000/svg">
<path d="M22.8063 39.2866L33.317 33.2181C35.8657 31.7465 34.6931 27.8423 31.7554 28.0186L18.2106 28.8317C16.141 28.9559 14.9257 31.2147 15.9623 33.0102L18.9965 38.2657C19.7667 39.5997 21.4724 40.0567 22.8063 39.2866Z" fill="#8D30B9" stroke="#8D30B9" stroke-width="1.85934"/>
<path d="M35.8878 61.9469L46.3985 55.8784C48.9472 54.4069 51.742 57.3745 50.1204 59.8306L42.6439 71.1545C41.5016 72.8848 38.9378 72.8079 37.9012 71.0123L34.867 65.7569C34.0968 64.4229 34.5539 62.7171 35.8878 61.9469Z" fill="#8D30B9" stroke="#8D30B9" stroke-width="1.85934"/>
<path d="M37.3759 64.6935C56.5719 53.4703 67.6906 37.1157 71.7949 28.475C72.5886 26.8039 71.4874 24.8966 69.6434 24.7485C60.1168 23.9833 40.4206 25.4321 21.1196 36.4187C20.6728 36.6731 20.2666 37.0723 20.044 37.6125C19.2645 39.5039 17.3241 45.9158 21.9405 54.7307C26.6886 63.797 33.9465 64.9141 35.9802 65.0413C36.5031 65.0741 36.9821 64.9237 37.3759 64.6935Z" fill="#21D373" stroke="#21D373" stroke-width="1.85934"/>
<path d="M57.6703 43.9444C57.4572 45.2084 56.2155 45.9257 55.0143 45.4785C52.715 44.6227 49.1467 42.8355 47.2492 39.5488C45.3515 36.2617 45.5873 32.2758 45.9953 29.8556C46.2083 28.5917 47.45 27.8744 48.6513 28.3215C50.9505 29.1773 54.5188 30.9646 56.4163 34.2513C58.314 37.5383 58.0782 41.5243 57.6703 43.9444Z" fill="white"/>
<path d="M47.8217 39.2156C49.0551 41.352 51.851 42.047 54.0665 40.7679C56.282 39.4887 57.0781 36.7198 55.8446 34.5834C54.6112 32.447 51.8153 31.752 49.5998 33.0312C47.3843 34.3103 46.5882 37.0792 47.8217 39.2156Z" fill="#8D30B9"/>
<path d="M50.1973 38.0367C50.7455 38.9862 52.0238 39.2745 53.0524 38.6806C54.081 38.0867 54.4705 36.8355 53.9223 35.886C53.3741 34.9365 52.0958 34.6482 51.0672 35.2421C50.0386 35.836 49.6491 37.0871 50.1973 38.0367Z" fill="#8D30B9"/>
<path d="M37.0371 45.7817L16.3195 57.7434" stroke="#8D30B9" stroke-width="1.85934" stroke-linecap="round"/>
<path d="M14.4414 50.8188L4.37854 56.6288" stroke="#8D30B9" stroke-width="2.23489" stroke-linecap="round"/>
<path d="M20.0918 63.3401L2.3338 73.5929" stroke="#8D30B9" stroke-width="2.23489" stroke-linecap="round"/>
<path d="M41.748 37.5369C42.2101 39.3688 43.7456 43.4726 46.1908 45.2322" stroke="white" stroke-width="2.23489" stroke-linecap="round"/>
</svg>
