<svg width="80" height="80" viewBox="0 0 80 80" fill="none" xmlns="http://www.w3.org/2000/svg">
<circle cx="40" cy="40" r="40" transform="matrix(-1 0 0 1 80 0)" fill="white"/>
<path d="M32.2413 39.1768L46.1172 25.3393C46.5718 24.8861 47.3079 24.8869 47.7617 25.3416C48.2152 25.7962 48.2141 26.5327 47.7594 26.9861L34.7094 40.0001L47.7599 53.0139C48.2145 53.4674 48.2157 54.2034 47.7622 54.6581C47.5347 54.886 47.2366 55 46.9386 55C46.6412 55 46.3444 54.8868 46.1172 54.6604L32.2413 40.8233C32.0223 40.6054 31.8995 40.309 31.8995 40.0001C31.8995 39.6911 32.0227 39.395 32.2413 39.1768Z" fill="#8D30B9"/>
</svg>
