<svg width="24" height="25" viewBox="0 0 24 25" fill="none" xmlns="http://www.w3.org/2000/svg">
<g id="icon">
<path id="Vector" d="M20.5344 3.84848C18.5204 1.80426 15.8458 0.550613 12.993 0.313657C10.1402 0.0767013 7.29701 0.872039 4.97634 2.55621C2.65567 4.24038 1.01025 6.70252 0.336877 9.4985C-0.336495 12.2945 0.00650907 15.2403 1.30402 17.8045L0.0303509 24.0187C0.0171352 24.0806 0.0167609 24.1445 0.0292516 24.2065C0.0417423 24.2685 0.0668289 24.3272 0.102943 24.379C0.155847 24.4577 0.231365 24.5182 0.319412 24.5526C0.407458 24.587 0.503842 24.5935 0.595692 24.5714L6.65606 23.1278C9.20046 24.3987 12.111 24.7213 14.8698 24.038C17.6287 23.3548 20.0568 21.7101 21.7222 19.3965C23.3876 17.083 24.1823 14.2507 23.9648 11.4037C23.7473 8.5566 22.5317 5.87942 20.5344 3.84848Z" fill="#37D259"/>
<path id="Vector_2" d="M18.3151 16.2482C17.8598 16.9689 17.1405 17.8509 16.2364 18.0698C14.6525 18.4545 12.2218 18.0831 9.19709 15.249L9.15969 15.2158C6.50016 12.7376 5.80944 10.6751 5.97662 9.03919C6.06901 8.1107 6.83893 7.27064 7.48786 6.7224C7.59046 6.6344 7.71212 6.57175 7.84311 6.53945C7.97411 6.50716 8.11081 6.50611 8.24228 6.53641C8.37375 6.5667 8.49634 6.62748 8.60026 6.7139C8.70417 6.80032 8.78652 6.90998 8.84072 7.0341L9.81962 9.24478C9.88323 9.38812 9.90681 9.54616 9.88782 9.70194C9.86883 9.85773 9.80799 10.0054 9.71183 10.129L9.21688 10.7746C9.11068 10.9079 9.0466 11.07 9.03288 11.2402C9.01916 11.4104 9.05642 11.5808 9.13989 11.7296C9.41706 12.2181 10.0814 12.9366 10.8183 13.602C11.6454 14.3537 12.5627 15.0412 13.1435 15.2755C13.2989 15.3393 13.4697 15.3549 13.634 15.3202C13.7983 15.2855 13.9485 15.2022 14.0652 15.081L14.6393 14.4996C14.7501 14.3898 14.8879 14.3115 15.0386 14.2726C15.1893 14.2338 15.3476 14.2358 15.4972 14.2785L17.8224 14.9417C17.9507 14.9812 18.0682 15.0497 18.1661 15.1419C18.264 15.2341 18.3396 15.3476 18.3871 15.4737C18.4347 15.5998 18.4529 15.7351 18.4404 15.8693C18.428 16.0036 18.3851 16.1332 18.3151 16.2482Z" fill="white"/>
</g>
</svg>
