<svg width="110" height="110" viewBox="0 0 110 110" fill="none" xmlns="http://www.w3.org/2000/svg">
<path d="M85.0615 76.3471C84.974 76.3471 84.8872 76.3308 84.8056 76.2991L80.8117 74.7442C80.7028 74.7017 80.6063 74.6328 80.5307 74.5437C80.4551 74.4546 80.4028 74.3481 80.3786 74.2338C80.3544 74.1195 80.3589 74.001 80.3919 73.8889C80.4249 73.7768 80.4852 73.6747 80.5675 73.5917C80.9804 73.1735 90.5946 63.169 82.2451 47.3998C82.1582 47.2347 82.1404 47.0419 82.1955 46.8637C82.2506 46.6854 82.3741 46.5363 82.539 46.449C82.7039 46.3618 82.8967 46.3434 83.075 46.3981C83.2534 46.4528 83.4028 46.576 83.4905 46.7406C90.9891 60.9035 84.4749 70.98 82.2468 73.791L85.3175 74.9861C85.4705 75.0458 85.5977 75.1572 85.6773 75.3008C85.7569 75.4444 85.7839 75.6113 85.7535 75.7727C85.7232 75.934 85.6374 76.0797 85.5111 76.1846C85.3848 76.2895 85.2257 76.347 85.0615 76.3471Z" fill="black"/>
<path d="M49.8647 82.248C49.6959 82.248 49.5327 82.1874 49.4048 82.0772C49.2768 81.967 49.1928 81.8145 49.1679 81.6475C49.143 81.4805 49.1788 81.3101 49.269 81.1674C49.3592 81.0246 49.4976 80.919 49.6591 80.8698C52.2792 80.0693 54.6299 79.5014 56.7036 78.9999C61.2582 77.8991 64.2677 77.1717 65.2689 75.1936C66.1165 73.52 65.6339 70.714 63.7029 66.0953C63.6668 66.0099 63.6479 65.9183 63.6474 65.8256C63.6468 65.7329 63.6646 65.641 63.6996 65.5552C63.7346 65.4694 63.7862 65.3914 63.8514 65.3256C63.9167 65.2598 63.9943 65.2075 64.0798 65.1717C64.1653 65.136 64.257 65.1174 64.3496 65.1172C64.4423 65.1169 64.5341 65.135 64.6198 65.1703C64.7055 65.2056 64.7833 65.2575 64.8489 65.323C64.9145 65.3885 64.9665 65.4662 65.002 65.5519C67.1353 70.6533 67.591 73.7273 66.526 75.8302C65.2303 78.3883 61.9698 79.1764 57.0343 80.3694C54.9799 80.8662 52.651 81.4291 50.0703 82.2172C50.0037 82.2376 49.9344 82.248 49.8647 82.248Z" fill="black"/>
<path d="M50.3231 82.6332C51.0996 85.0749 51.1251 91.2914 48.3616 93.5366L48.129 93.8863C48.129 93.8863 42.9539 99.3665 41.0245 93.2995C40.3159 91.0711 37.4945 83.3801 37.8702 82.5246C38.9702 80.0195 44.0031 80.6607 44.9051 79.9969C48.3535 77.4588 49.9554 81.4768 50.3231 82.6332Z" fill="white"/>
<path d="M43.9312 96.8604C43.6935 96.8611 43.4564 96.8349 43.2246 96.7824C41.9145 96.4834 40.9486 95.3834 40.3536 93.5133C40.1983 93.0253 39.9407 92.2734 39.6386 91.3888C37.4272 84.9286 36.9085 82.9623 37.2258 82.2414C38.1296 80.1834 40.884 79.8957 42.8956 79.6855C43.4368 79.658 43.9733 79.5706 44.4952 79.4249C44.958 79.0161 45.5147 78.728 46.1158 78.5863C46.7168 78.4446 47.3436 78.4537 47.9403 78.6127C49.7941 79.2147 50.6938 81.4756 50.9951 82.4197C51.8343 85.0606 51.8385 91.4958 48.8911 94.0122L48.7157 94.2766C48.6937 94.31 48.6687 94.3413 48.641 94.3702C48.5361 94.4816 46.2601 96.8604 43.9312 96.8604ZM38.5391 82.7571C38.4863 83.6727 40.1605 88.5655 40.9712 90.9325C41.2784 91.8292 41.5386 92.5915 41.6963 93.0862C42.1294 94.4472 42.7487 95.2288 43.5385 95.409C44.9945 95.7399 46.9038 94.1413 47.5768 93.445L47.7749 93.1468C47.8143 93.0877 47.8624 93.0349 47.9176 92.9901C50.3236 91.0349 50.4101 85.2301 49.6523 82.8469C49.2746 81.6621 48.5126 80.2799 47.5055 79.9528C47.1195 79.8721 46.7196 79.8856 46.3398 79.992C45.96 80.0985 45.6114 80.2948 45.3235 80.5644C44.6139 80.9128 43.833 81.0916 43.0425 81.0868C41.3959 81.2587 39.1502 81.4932 38.5391 82.7571Z" fill="black"/>
<path d="M48.1282 94.5905C47.9719 94.5903 47.8201 94.5381 47.6967 94.4421C47.5733 94.3461 47.4854 94.2117 47.4468 94.0603L44.0244 80.6657C44.0012 80.576 43.9959 80.4826 44.0089 80.3909C44.0218 80.2991 44.0528 80.2109 44.0999 80.1311C44.147 80.0513 44.2095 79.9816 44.2836 79.926C44.3577 79.8704 44.4421 79.83 44.5318 79.8071C44.6216 79.7841 44.715 79.7791 44.8067 79.7924C44.8984 79.8056 44.9866 79.8368 45.0662 79.8842C45.1459 79.9315 45.2154 79.9942 45.2707 80.0684C45.3261 80.1427 45.3663 80.2272 45.389 80.317L48.8114 93.7116C48.8343 93.8012 48.8394 93.8945 48.8263 93.986C48.8132 94.0776 48.7822 94.1656 48.735 94.2452C48.6879 94.3248 48.6255 94.3943 48.5515 94.4497C48.4775 94.5052 48.3932 94.5456 48.3036 94.5685C48.2463 94.5831 48.1874 94.5905 48.1282 94.5905Z" fill="black"/>
<path d="M57.2698 96.8885C59.4242 97.0234 61.5849 97.0234 63.7393 96.8885C65.2865 96.7921 66.3961 95.6878 66.2258 94.5128C66.079 93.4338 65.9321 92.3547 65.785 91.2754C65.6657 90.6917 65.3346 90.1728 64.8556 89.8186C64.3766 89.4644 63.7835 89.2999 63.1905 89.3568C61.4016 89.4686 59.6075 89.4686 57.8186 89.3568C57.2256 89.2997 56.6323 89.4641 56.1533 89.8183C55.6742 90.1726 55.3432 90.6916 55.2241 91.2754C55.0773 92.3553 54.9304 93.4344 54.7833 94.5128C54.6106 95.6827 55.7239 96.7912 57.2698 96.8885Z" fill="white"/>
<path d="M60.5037 97.6679C59.4085 97.6679 58.3133 97.6339 57.2256 97.5657C56.7365 97.5461 56.2566 97.4258 55.816 97.2123C55.3754 96.9988 54.9837 96.6967 54.6651 96.3249C54.4441 96.0628 54.2806 95.7573 54.185 95.4281C54.0895 95.0988 54.064 94.7532 54.1104 94.4136L54.5502 91.1846C54.6938 90.4315 55.1116 89.7584 55.7229 89.2957C56.3342 88.8329 57.0954 88.6134 57.8592 88.6795C59.6202 88.789 61.3863 88.789 63.1473 88.6795C63.9093 88.6137 64.6688 88.8322 65.2795 89.2929C65.8901 89.7536 66.3087 90.4239 66.4547 91.1748L66.897 94.4213C66.942 94.7611 66.9155 95.1066 66.8191 95.4355C66.7227 95.7644 66.5585 96.0695 66.3372 96.3312C66.0187 96.7017 65.6272 97.0025 65.1873 97.2149C64.7473 97.4274 64.2682 97.5468 63.78 97.5658C62.6932 97.6337 61.598 97.6679 60.5037 97.6679ZM57.3112 96.2112C59.4372 96.3438 61.5693 96.3438 63.6953 96.2112C63.996 96.2019 64.2917 96.132 64.5647 96.0055C64.8377 95.8791 65.0824 95.6988 65.2839 95.4754C65.3865 95.3578 65.4635 95.2202 65.5099 95.0712C65.5563 94.9222 65.5711 94.7652 65.5533 94.6102L65.1111 91.3674C65.0212 90.9498 64.778 90.5811 64.4294 90.3343C64.0809 90.0874 63.6524 89.9803 63.2287 90.0342C61.4124 90.1472 59.5908 90.1472 57.7745 90.034C57.3507 89.9865 56.9243 90.0973 56.5772 90.345C56.23 90.5927 55.9867 90.96 55.8938 91.3762L55.454 94.6047C55.4353 94.7596 55.4493 94.9168 55.4952 95.066C55.541 95.2151 55.6176 95.3531 55.72 95.4708C55.9216 95.6952 56.1664 95.8765 56.4399 96.0038C56.7134 96.131 57.0098 96.2016 57.3112 96.2112Z" fill="black"/>
<path d="M64.0223 89.4405C63.9429 88.345 63.5771 85.0563 60.4008 85.112C57.2246 85.1677 56.9665 88.7987 56.7793 89.352C56.7793 89.352 58.4979 89.4405 60.3696 89.4405L64.0223 89.4405Z" fill="white"/>
<path d="M64.0238 90.1448H60.3706C58.5025 90.1448 56.7619 90.0563 56.7443 90.0554C56.6357 90.0498 56.5298 90.019 56.435 89.9656C56.3402 89.9122 56.2591 89.8376 56.1979 89.7476C56.1368 89.6576 56.0973 89.5546 56.0826 89.4468C56.0679 89.339 56.0784 89.2293 56.1132 89.1262C56.1317 89.0681 56.1493 88.9694 56.1753 88.8438C56.3969 87.761 57.0699 84.4659 60.3891 84.4076C62.9488 84.3782 64.4929 86.1794 64.7263 89.3893C64.7334 89.4858 64.7205 89.5828 64.6884 89.6742C64.6563 89.7656 64.6057 89.8493 64.5398 89.9202C64.4739 89.9911 64.394 90.0477 64.3052 90.0863C64.2164 90.125 64.1207 90.1449 64.0238 90.1448ZM57.6532 88.6835C58.3263 88.7078 59.3283 88.7361 60.3706 88.7361H63.2349C62.9219 86.7702 61.9501 85.7843 60.4143 85.8162C58.6603 85.8471 58.0065 87.2192 57.6532 88.6835Z" fill="black"/>
<path d="M59.4573 85.8161C59.3265 85.8163 59.1982 85.78 59.0868 85.7114C58.9755 85.6427 58.8855 85.5443 58.827 85.4274C53.6154 75.036 54.3723 61.4364 54.4068 60.8626C54.4111 60.7698 54.434 60.6788 54.4741 60.595C54.5142 60.5113 54.5707 60.4364 54.6403 60.3748C54.7098 60.3132 54.791 60.2662 54.8791 60.2365C54.9671 60.2069 55.0602 60.1952 55.1528 60.2021C55.3392 60.2135 55.5135 60.2984 55.6373 60.4382C55.7612 60.578 55.8245 60.7612 55.8133 60.9476C55.8049 61.0846 55.0471 74.7488 60.0858 84.7959C60.1396 84.9032 60.1651 85.0225 60.1598 85.1424C60.1545 85.2623 60.1187 85.3789 60.0558 85.4811C59.9928 85.5833 59.9048 85.6677 59.8 85.7264C59.6953 85.785 59.5773 85.8159 59.4573 85.8161Z" fill="black"/>
<path d="M63.3987 67.8766C62.0992 68.9255 60.7261 69.9581 60.7284 69.9537C60.737 69.9606 58.8651 69.2201 57.5264 68.5805C47.161 64.5869 35.2458 59.5622 27.4283 53.2585C24.3556 50.3009 21.8346 46.5802 21.108 42.1432C20.4947 37.7242 20.6914 32.7966 23.7384 28.4347C26.7491 24.0629 31.5114 21.7366 35.9702 20.736C40.5118 19.7838 44.2119 20.1489 48.0464 22.1344C50.7464 23.8813 53.222 25.9527 55.4178 28.3021C56.9342 25.7805 59.3097 22.2687 61.0731 20.7291C64.2486 17.9135 67.7803 16.7821 72.2624 16.8645C77.1739 16.939 81.8944 18.7792 85.5605 22.0486C89.4427 25.6155 90.6546 29.8988 90.9812 33.9251C91.2025 37.9898 89.8182 41.8203 87.506 45.4099C81.8374 53.5166 72.0566 61.413 63.3987 67.8766Z" fill="url(#paint0_linear_619_9094)"/>
<path d="M71.8103 16.8605C71.9597 16.8605 72.1102 16.8619 72.2618 16.8647C77.1733 16.9392 81.8938 18.7794 85.5599 22.0486C89.4422 25.6154 90.654 29.8988 90.9805 33.925C91.202 37.9899 89.8177 41.8205 87.5052 45.4099C81.8366 53.5169 72.0558 61.4133 63.3982 67.8766C62.1025 68.9228 60.7337 69.952 60.7278 69.9538C60.719 69.9538 58.8584 69.2173 57.5257 68.5808C47.1603 64.5868 35.2453 59.5624 27.4279 53.2585C24.355 50.301 21.8339 46.5803 21.1076 42.1432C20.4941 37.7242 20.6909 32.7967 23.7377 28.4348C26.7485 24.0628 31.5107 21.7368 35.9696 20.7361C37.4385 20.4145 38.9369 20.246 40.4406 20.2333C43.0938 20.229 45.7067 20.8822 48.0457 22.1346C50.7457 23.8814 53.2213 25.9527 55.4171 28.3021C56.9336 25.7807 59.3091 22.2689 61.0723 20.7293C64.0128 18.0931 67.8642 16.7055 71.8103 16.8605ZM71.8103 15.829C67.6124 15.6771 63.5189 17.1567 60.3883 19.9576C58.5836 21.5333 56.4364 24.7286 55.2371 26.6291C53.2151 24.5846 50.9696 22.7739 48.543 21.2311C46.0496 19.9003 43.267 19.2034 40.4406 19.2019C38.8658 19.2136 37.2965 19.3896 35.7581 19.7268C30.2036 20.9736 25.6382 23.8571 22.8884 27.8498C20.1916 31.7103 19.2739 36.4339 20.0862 42.285C20.7757 46.498 23.0038 50.4319 26.7128 54.0016L26.7451 54.0326L26.7804 54.0611C34.678 60.4297 46.5439 65.4534 57.1174 69.5287C58.2723 70.1269 59.4811 70.6146 60.7278 70.9852H60.8713L61.0094 70.9457C61.1147 70.9159 61.3618 70.8458 64.0461 68.6789C72.2568 62.55 82.4711 54.409 88.3503 46.0008C91.0384 41.8298 92.2284 37.8724 92.0102 33.8688C91.5738 28.483 89.7464 24.4946 86.2577 21.2891C82.4047 17.8599 77.4505 15.9246 72.2933 15.8341C72.1229 15.8307 71.966 15.829 71.8103 15.829Z" fill="url(#paint1_linear_619_9094)"/>
<path d="M62.327 52.8785C62.223 52.8785 62.1224 52.8407 62.0441 52.7721C61.9657 52.7036 61.9149 52.609 61.9011 52.5058C61.8872 52.4026 61.9113 52.2979 61.9688 52.2112C62.0263 52.1244 62.1133 52.0615 62.2137 52.034C62.8977 51.8464 64.6803 51.1406 64.7113 50.1405C64.7228 49.974 64.6994 49.807 64.6424 49.6502C64.5855 49.4934 64.4963 49.3502 64.3807 49.2299C63.7608 48.7579 63.0038 48.5012 62.2247 48.499C62.1197 48.4979 62.0187 48.4585 61.9408 48.3881C61.8628 48.3177 61.8134 48.2213 61.8017 48.1169C61.79 48.0126 61.817 47.9076 61.8774 47.8217C61.9379 47.7359 62.0277 47.6751 62.1298 47.6509C62.4858 47.584 62.8152 47.4165 63.0789 47.1681C63.3426 46.9198 63.5296 46.6011 63.6178 46.2498C63.6818 46.0251 63.6813 45.787 63.6164 45.5626C63.5516 45.3381 63.425 45.1364 63.2511 44.9805C62.7509 44.5798 61.8588 44.6368 60.8038 45.1349C60.7528 45.159 60.6976 45.1727 60.6412 45.1754C60.5849 45.178 60.5286 45.1696 60.4755 45.1505C60.4224 45.1314 60.3736 45.102 60.3319 45.0641C60.2902 45.0261 60.2563 44.9803 60.2323 44.9293C60.2083 44.8783 60.1946 44.823 60.1919 44.7667C60.1892 44.7104 60.1977 44.654 60.2168 44.601C60.2359 44.5479 60.2652 44.4991 60.3032 44.4574C60.3411 44.4157 60.3869 44.3818 60.4379 44.3578C62.3069 43.4753 63.3392 43.9497 63.789 44.3104C64.0895 44.5664 64.3115 44.9021 64.4295 45.2788C64.5476 45.6554 64.5568 46.0578 64.4562 46.4395C64.3295 46.9903 64.028 47.4854 63.5968 47.8507C64.1235 47.9864 64.6062 48.2557 64.9983 48.6326C65.1947 48.835 65.3469 49.076 65.4454 49.3402C65.544 49.6045 65.5866 49.8863 65.5707 50.1678C65.5136 51.9742 62.7542 52.7776 62.4403 52.8632C62.4034 52.8732 62.3653 52.8783 62.327 52.8785Z" fill="black"/>
<path d="M62.2023 33.2615C61.5207 40.519 73.3016 47.8543 73.3016 47.8543C73.3016 47.8543 86.1876 43.4229 86.8692 36.1654C87.5508 28.9079 77.8023 27.2533 74.5565 34.4923C71.7198 27.0019 62.884 26.004 62.2023 33.2615Z" fill="white"/>
<path d="M68.6391 37.259C68.9508 40.5334 73.9964 44.2798 73.9964 44.2798C73.9964 44.2798 79.4938 41.7086 80.2862 38.2578C81.0902 34.7564 77.3617 33.2153 74.4705 37.6487C72.042 32.9707 68.2972 33.6684 68.6391 37.259Z" fill="#C917CF"/>
<path d="M27.1281 41.9762C28.9338 49.5771 47.0755 52.3518 47.0755 52.3518C47.0755 52.3518 56.459 43.0379 54.6533 35.4371C52.8476 27.8362 41.7921 29.9078 40.8357 38.475C35.1673 31.9902 25.3223 34.3753 27.1281 41.9762Z" fill="white"/>
<path d="M36.4717 44.2888C38.2651 47.0042 44.9304 47.7437 44.9304 47.7437C44.9304 47.7437 49.1723 42.7125 48.3853 39.285C47.5868 35.8072 43.2184 36.3376 42.3864 41.6867C37.8732 38.8086 34.5052 41.3113 36.4717 44.2888Z" fill="#C917CF"/>
<path d="M75.6655 26.0626C75.4767 26.0626 75.2932 26.0002 75.1435 25.8851C73.1748 24.3851 70.9137 23.3139 68.506 22.7405C68.2825 22.6976 68.0852 22.5678 67.9573 22.3796C67.8293 22.1914 67.7813 21.9602 67.8236 21.7366C67.8659 21.513 67.9952 21.3154 68.1831 21.187C68.3709 21.0586 68.6021 21.0099 68.8258 21.0517C71.5006 21.667 74.0118 22.8503 76.1892 24.5213C76.3317 24.6307 76.4363 24.7819 76.4884 24.9538C76.5405 25.1257 76.5374 25.3096 76.4797 25.4796C76.4219 25.6497 76.3123 25.7973 76.1663 25.9019C76.0202 26.0065 75.8451 26.0627 75.6655 26.0626Z" fill="black"/>
<path d="M27.0611 19.0986C26.8744 19.0987 26.6926 19.038 26.5435 18.9256C26.3943 18.8132 26.2858 18.6553 26.2344 18.4757C26.183 18.2962 26.1914 18.1048 26.2586 17.9305C26.3257 17.7561 26.4477 17.6085 26.6063 17.5097C29.7862 15.5289 33.1246 13.8146 36.5873 12.3845C36.8012 12.3057 37.0376 12.3151 37.2446 12.4107C37.4516 12.5062 37.6121 12.6801 37.6909 12.894C37.7697 13.1079 37.7603 13.3443 37.6647 13.5513C37.5692 13.7582 37.3954 13.9188 37.1815 13.9976C33.8307 15.3921 30.5979 17.0546 27.5143 18.9688C27.3785 19.0537 27.2214 19.0987 27.0611 19.0986Z" fill="black"/>
<path d="M24.0634 62.6949C21.9427 62.6951 20.1576 62.2774 19.0708 61.2546C16.6027 58.9303 18.2702 54.3349 24.0265 47.5958C24.0866 47.5255 24.16 47.4677 24.2424 47.4258C24.3248 47.3838 24.4147 47.3585 24.5069 47.3513C24.5991 47.344 24.6919 47.3551 24.7798 47.3837C24.8678 47.4123 24.9493 47.4579 25.0196 47.518C25.0899 47.5781 25.1477 47.6515 25.1896 47.7339C25.2316 47.8163 25.2569 47.9062 25.2641 47.9984C25.2714 48.0907 25.2604 48.1834 25.2317 48.2713C25.2031 48.3593 25.1575 48.4408 25.0974 48.5111C20.0653 54.4021 18.2685 58.5636 20.0368 60.2289C23.3174 63.32 37.0774 58.9707 40.9581 55.8017C39.9846 55.0736 38.9479 54.4341 37.8604 53.8908C37.6945 53.8049 37.5695 53.6565 37.5129 53.4785C37.4563 53.3004 37.4728 53.1071 37.5587 52.9412C37.6446 52.7752 37.793 52.6502 37.971 52.5937C38.1491 52.5371 38.3424 52.5536 38.5083 52.6395C42.3957 54.6501 42.5148 55.4656 42.5534 55.7337C42.5749 55.8733 42.5624 56.016 42.517 56.1497C42.4716 56.2834 42.3945 56.4041 42.2924 56.5016C39.7437 58.958 30.4072 62.6943 24.0634 62.6949Z" fill="black"/>
<defs>
<linearGradient id="paint0_linear_619_9094" x1="67.0387" y1="96.2377" x2="52.2642" y2="17.5299" gradientUnits="userSpaceOnUse">
<stop offset="0.15922" stop-color="#F214B8"/>
<stop offset="0.20043" stop-color="#F31EC2"/>
<stop offset="0.33084" stop-color="#F63ADD"/>
<stop offset="0.46212" stop-color="#F84EF0"/>
<stop offset="0.59374" stop-color="#FA5AFB"/>
<stop offset="0.72626" stop-color="#FA5EFF"/>
<stop offset="0.86181" stop-color="#FA67FF"/>
<stop offset="1" stop-color="#FB76FF"/>
</linearGradient>
<linearGradient id="paint1_linear_619_9094" x1="55.9182" y1="70.9852" x2="55.9182" y2="15.8291" gradientUnits="userSpaceOnUse">
<stop stop-color="#B427C2"/>
<stop offset="1" stop-color="#D238D6"/>
</linearGradient>
</defs>
</svg>
