<svg width="85" height="5" viewBox="0 0 85 5" fill="none" xmlns="http://www.w3.org/2000/svg">
<path id="Line" d="M1.33398 2.35767C3.44937 4.2063 5.56475 4.2063 7.68014 2.35767C9.79552 0.509049 11.9109 0.509049 14.0263 2.35767C16.1417 4.2063 18.2571 4.2063 20.3724 2.35767C22.4878 0.509049 24.6032 0.509049 26.7186 2.35767C28.834 4.2063 30.9494 4.2063 33.0648 2.35767C35.1801 0.509049 37.2955 0.509049 39.4109 2.35767C41.5263 4.2063 43.6417 4.2063 45.7571 2.35767C47.8724 0.509049 49.9878 0.509049 52.1032 2.35767C54.2186 4.2063 56.334 4.2063 58.4494 2.35767C60.5648 0.509049 62.6801 0.509049 64.7955 2.35767C66.9109 4.2063 69.0263 4.2063 71.1417 2.35767C73.2571 0.509049 75.3724 0.509049 77.4878 2.35767C79.6032 4.2063 81.7186 4.2063 83.834 2.35767" stroke="white" stroke-linecap="round"/>
</svg>
