<svg width="97" height="5" viewBox="0 0 97 5" fill="none" xmlns="http://www.w3.org/2000/svg">
<path id="Line" d="M1 2.59794C3.4359 4.72842 5.87179 4.72842 8.30769 2.59794C10.7436 0.467462 13.1795 0.467462 15.6154 2.59794C18.0513 4.72842 20.4872 4.72842 22.9231 2.59794C25.359 0.467462 27.7949 0.467462 30.2308 2.59794C32.6667 4.72842 35.1026 4.72842 37.5385 2.59794C39.9744 0.467462 42.4103 0.467462 44.8462 2.59794C47.282 4.72842 49.7179 4.72842 52.1538 2.59794C54.5897 0.467462 57.0256 0.467462 59.4615 2.59794C61.8974 4.72842 64.3333 4.72842 66.7692 2.59794C69.2051 0.467462 71.641 0.467462 74.0769 2.59794C76.5128 4.72842 78.9487 4.72842 81.3846 2.59794C83.8205 0.467462 86.2564 0.467462 88.6923 2.59794C91.1282 4.72842 93.5641 4.72842 96 2.59794" stroke="#1D1130" stroke-linecap="round"/>
</svg>
