<svg width="111" height="110" viewBox="0 0 111 110" fill="none" xmlns="http://www.w3.org/2000/svg">
<g id="Rocket Tri_2">
<g id="Group 2087325249">
<g id="Group">
<path id="Vector" d="M41.0124 80.7815C36.9734 91.7815 34.8249 96.1643 38.0046 97.1096C40.6687 97.883 45.1374 92.469 46.9421 89.9768C47.028 89.8909 47.114 89.8049 47.1999 89.719C47.2859 89.633 47.4577 89.633 47.5437 89.719C47.6296 89.719 47.8015 89.8049 47.8874 89.8909C47.9734 89.9768 48.0593 90.0627 48.0593 90.2346C49.0905 94.1877 52.4421 105.274 56.5671 105.274C59.9187 105.274 59.9187 95.4768 59.8327 91.9534C59.8327 91.8674 59.8327 91.6955 59.9187 91.6096C60.0046 91.5237 60.0905 91.4377 60.1765 91.3518C60.2624 91.2659 60.4343 91.2659 60.5202 91.2659C60.6062 91.2659 60.778 91.2659 60.864 91.3518C63.1843 92.8127 68.5124 95.7346 68.5124 92.2112C68.5124 88.4299 61.7234 76.6565 57.4265 69.094C54.5905 69.1799 47.9734 68.4924 45.2234 69.094L41.0124 80.7815Z" fill="white"/>
<path id="Vector_2" d="M56.5673 105.961C52.2705 105.961 49.0048 96.2501 47.372 90.4064C44.5361 94.1876 40.583 98.5705 37.747 97.797C36.9736 97.5392 36.372 97.1095 36.0283 96.508C35.083 94.6173 36.372 91.2658 38.8642 84.5627C39.2939 83.3595 39.8095 82.0705 40.3252 80.6095L44.5361 68.8361C44.622 68.5783 44.7939 68.4064 45.0517 68.4064C46.9423 67.9767 50.4658 68.1486 53.4736 68.3205C55.0205 68.4064 56.3955 68.4064 57.3408 68.4064C57.5986 68.4064 57.8564 68.5783 57.9423 68.7501L59.0595 70.6408C63.5283 78.633 69.1142 88.5158 69.1142 92.2111C69.1142 93.5002 68.5127 94.0158 68.083 94.2736C66.708 95.047 64.1298 94.2736 60.4345 91.9533C60.6064 95.9064 60.4345 102.953 58.2861 105.188C57.8564 105.703 57.2548 105.961 56.5673 105.961ZM47.372 88.9791C47.458 88.9791 47.6646 89.0261 47.7505 89.0261C48.0083 89.112 48.2314 89.2033 48.4033 89.3751C48.5752 89.547 48.747 89.8048 48.833 90.0627C51.2392 98.9142 54.247 104.586 56.6533 104.586C56.9111 104.586 57.1689 104.5 57.4267 104.242C58.7158 102.867 59.4033 98.3126 59.2314 91.9533C59.2314 91.6955 59.3173 91.4376 59.4033 91.2658C59.4892 91.0939 59.6611 90.8361 59.9189 90.7501C60.1767 90.6642 60.3486 90.5783 60.6064 90.5783C60.8642 90.5783 61.122 90.6642 61.2939 90.7501C64.9033 92.9845 66.8798 93.4142 67.5673 93.0705C67.6533 92.9845 67.9111 92.8986 67.9111 92.2111C67.9111 88.8595 61.9814 78.3751 58.0283 71.3283L57.1689 69.7814C56.2236 69.7814 54.9345 69.6955 53.6455 69.6955C50.9814 69.6095 47.7158 69.4376 45.9111 69.6955L41.5402 81.0392C41.0245 82.4142 40.5089 83.7892 40.0792 84.9923C37.9308 90.7501 36.5558 94.5314 37.2433 95.8205C37.3292 95.9923 37.5011 96.2502 38.1027 96.422C39.6495 96.8517 42.9635 94.2897 46.401 89.5632C46.5378 89.3751 46.683 89.2611 46.8683 89.1173C47.0455 89.0314 47.2002 88.9791 47.372 88.9791Z" fill="black"/>
</g>
<path id="Vector_3" d="M96.6451 73.6381C92.4933 66.79 60.5883 14.6989 58.0723 10.3586C57.08 8.64689 55.0973 4.9033 52.9178 4.75537C50.7383 4.90287 48.7548 8.64606 47.7623 10.3576C45.2454 14.6974 13.3301 66.7821 9.17687 73.6294C7.54303 76.3228 6.12279 78.8328 12.1527 78.9748C26.6701 79.3174 39.2226 79.0539 52.9105 78.9923C66.5984 79.0566 79.1507 79.3226 93.6683 78.9829C99.6982 78.8421 98.2784 76.3318 96.6451 73.6381Z" fill="url(#paint0_linear_135_251)"/>
<path id="Vector_4" d="M52.9181 4.75519C55.0976 4.9029 57.0803 8.64671 58.0722 10.3583C60.5883 14.6988 92.4934 66.7896 96.6455 73.6378C98.2787 76.3317 99.6982 78.8419 93.6683 78.9828C88.2506 79.1096 83.1083 79.152 78.077 79.152C69.6255 79.152 61.4904 79.0324 52.9105 78.9921C44.394 79.0303 36.3185 79.1469 27.9341 79.1469C22.8433 79.1469 17.6376 79.1041 12.1527 78.9745C6.12285 78.8327 7.54325 76.3225 9.17724 73.6294C13.3302 66.7821 45.2454 14.6972 47.7622 10.3575C48.7551 8.64588 50.7386 4.90243 52.9181 4.75519ZM52.9181 3.72172L52.8484 3.72634C50.2737 3.90047 48.2834 7.37449 47.0946 9.4499L46.8701 9.84015C45.1955 12.7275 30.3641 36.9839 19.5346 54.6951C14.0267 63.703 9.67616 70.818 8.29562 73.0948C7.30155 74.733 6.17446 76.5902 7.03006 78.1525C7.69473 79.3668 9.26746 79.9383 12.1284 80.0055C17.1206 80.1234 22.143 80.1784 27.9341 80.1784C32.9082 80.1784 37.8773 80.1364 42.6828 80.0961C46.0544 80.0676 49.4483 80.039 52.9151 80.0235C56.377 80.0395 59.7755 80.0688 63.1517 80.0978C68.0138 80.1397 73.0416 80.183 78.077 80.183C83.7117 80.183 88.8196 80.1276 93.6922 80.0139C96.5536 79.9467 98.1263 79.3756 98.7914 78.1617C99.647 76.5999 98.5208 74.7422 97.5275 73.1032C96.1529 70.8364 91.8329 63.7684 86.3636 54.8197C75.5086 37.0594 60.6424 12.7355 58.9643 9.84137L58.7411 9.45238C57.5527 7.37613 55.5633 3.90082 52.9877 3.72629L52.9181 3.72172Z" fill="url(#paint1_linear_135_251)"/>
<path id="Vector_5" d="M71.48 43.7488C69.1218 46.1905 62.8556 47.7169 59.4805 48.0797C49.9486 49.1044 38.9864 48.1883 34.335 43.6797C39.6129 36.3901 44.8608 33.0567 51.5588 32.2628C59.9195 31.2719 69.1822 38.4173 71.48 43.7488Z" fill="white"/>
<g id="Clip path group">
<mask id="mask0_135_251" style="mask-type:luminance" maskUnits="userSpaceOnUse" x="34" y="32" width="38" height="17">
<g id="clip-path">
<path id="Vector_6" d="M71.4869 43.7266C69.1322 46.1717 62.8683 47.7097 59.4937 48.0774C49.9633 49.116 38.9998 48.2133 34.3418 43.7115C39.6091 36.4142 44.8521 33.0732 51.5491 32.2696C59.9083 31.2665 69.1813 38.3984 71.4869 43.7266Z" fill="white"/>
</g>
</mask>
<g mask="url(#mask0_135_251)">
<g id="Group_2">
<path id="Vector_7" d="M52.522 51.5859C57.0095 51.5859 60.6474 47.948 60.6474 43.4604C60.6474 38.9729 57.0095 35.335 52.522 35.335C48.0344 35.335 44.3965 38.9729 44.3965 43.4604C44.3965 47.948 48.0344 51.5859 52.522 51.5859Z" fill="black"/>
</g>
</g>
</g>
<path id="Vector_8" d="M47.5975 23.0139C49.1136 22.1466 50.6138 21.3329 52.1399 20.5277C53.6631 19.7258 55.1992 18.9464 56.7481 18.1896C56.951 18.09 57.1716 18.0314 57.3972 18.0171C57.6227 18.0028 57.8489 18.0332 58.0628 18.1064C58.2766 18.1797 58.4739 18.2944 58.6434 18.444C58.8128 18.5936 58.9511 18.7751 59.0503 18.9782C59.1495 19.1813 59.2077 19.402 59.2215 19.6276C59.2353 19.8532 59.2045 20.0793 59.1308 20.293C59.0571 20.5067 58.942 20.7038 58.7921 20.8729C58.6422 21.0421 58.4604 21.18 58.2571 21.2788C58.2415 21.2864 58.2172 21.2977 58.2013 21.3048C56.6621 21.9922 55.1318 22.7034 53.6102 23.4386C52.0937 24.1725 50.5688 24.9337 49.0973 25.7091L49.0821 25.7171C48.7244 25.9057 48.3068 25.9462 47.9195 25.8298C47.5321 25.7135 47.206 25.4497 47.0113 25.0952C46.8166 24.7407 46.7689 24.3239 46.8786 23.9346C46.9882 23.5453 47.2464 23.2147 47.5975 23.0139Z" fill="black"/>
<g id="Group_3">
<path id="Vector_9" d="M52.958 62.8276C51.9268 62.7417 50.9814 62.4839 50.1221 61.9683C49.2627 61.4526 48.5752 60.7651 48.1455 59.9058C47.2861 58.273 46.6846 56.5542 46.5127 54.6636C46.5127 54.3198 46.7705 53.9761 47.1143 53.8901C47.458 53.8901 47.8018 54.1479 47.8877 54.4917C48.0596 56.1245 48.4893 57.6714 49.3486 59.1323C49.6924 59.8198 50.208 60.3355 50.8955 60.7651C51.4971 61.1948 52.2705 61.3667 52.958 61.4526C53.6455 61.3667 54.4189 61.1948 55.0205 60.7651C55.6221 60.3355 56.1377 59.8198 56.4814 59.2183C57.2549 57.7573 57.7705 56.2964 57.9424 54.6636C57.9424 54.3198 58.3721 53.9761 58.7158 54.062C59.0596 54.062 59.4033 54.4058 59.3174 54.8355C59.1455 56.6401 58.6299 58.3589 57.7705 59.9058C57.2549 60.7651 56.6533 61.4526 55.7939 61.9683C54.9346 62.4839 53.9893 62.7417 52.958 62.8276C53.0439 62.8276 53.0439 62.8276 52.958 62.8276Z" fill="black"/>
</g>
<g id="Group_4">
<path id="Vector_10" d="M71.0045 50.9678C70.317 50.9678 69.7154 50.4522 69.6295 49.7647C69.5435 48.9913 70.0591 48.3038 70.8326 48.2178L75.9029 47.4444C76.6763 47.3585 77.3638 47.8741 77.4498 48.6475C77.5357 49.421 77.0201 50.1085 76.2466 50.1944L71.1763 50.9678C71.1763 50.9678 71.0904 50.9678 71.0045 50.9678Z" fill="#FF99E4"/>
</g>
<g id="Group_5">
<path id="Vector_11" d="M34.9107 50.9678C34.8248 50.9678 34.7388 50.9678 34.7388 50.9678L29.6685 50.1944C28.8951 50.1085 28.3795 49.421 28.4654 48.6475C28.5513 47.8741 29.2388 47.3585 30.0123 47.4444L35.0826 48.2178C35.856 48.3038 36.3716 48.9913 36.2857 49.7647C36.1138 50.4522 35.5123 50.9678 34.9107 50.9678Z" fill="#FF99E4"/>
</g>
<g id="Group_6">
<path id="Vector_12" d="M104.95 61.1943C104.95 67.5537 99.0206 68.1553 92.2315 68.2412C83.9815 68.4131 80.9737 63.7725 80.9737 58.0146C80.8878 51.0537 81.3175 39.7959 81.4034 32.0615C81.4034 28.5381 80.9737 25.0146 84.755 25.0146C87.6768 25.0146 89.9971 27.0771 89.9971 34.6396C89.9971 37.9912 90.255 40.7412 91.7159 42.8896L101.341 56.21C101.341 56.124 104.95 56.0381 104.95 61.1943Z" fill="white"/>
<path id="Vector_13" d="M91.8018 68.9287C88.1064 68.9287 85.1846 67.9834 83.208 66.0068C81.3174 64.1162 80.2861 61.3662 80.2861 58.0146C80.2861 53.8896 80.3721 48.2178 80.5439 42.7178C80.6299 38.8506 80.7158 35.1553 80.7158 32.0615C80.7158 31.7178 80.7158 31.374 80.7158 30.9443C80.7158 28.71 80.7158 26.5615 81.9189 25.2725C82.6064 24.585 83.4658 24.3271 84.6689 24.3271C88.708 24.3271 90.5986 27.6787 90.5986 34.6397C90.5986 38.0772 90.8564 40.5693 92.2314 42.5459L101.685 55.6084C102.2 55.6943 103.231 55.9521 104.091 56.7256C105.122 57.7568 105.638 59.2178 105.638 61.2803C105.638 68.7568 97.9033 68.9287 92.2314 69.0146C92.0596 68.9287 91.9736 68.9287 91.8018 68.9287ZM84.6689 25.6162C83.8096 25.6162 83.2939 25.7881 82.8643 26.2178C82.0049 27.0771 82.0049 28.9678 82.0049 30.9443C82.0049 31.2881 82.0049 31.7178 82.0049 32.0615C82.0049 35.2412 81.9189 38.8506 81.833 42.7178C81.7471 48.2178 81.5752 53.8037 81.5752 57.9287C81.5752 60.9365 82.4346 63.3428 84.1533 64.9756C85.958 66.6943 88.6221 67.5537 92.1455 67.4678C100.138 67.2959 104.177 66.2646 104.177 61.1084C104.177 59.4756 103.833 58.2725 103.06 57.585C102.286 56.8115 101.341 56.8115 101.255 56.8115C100.997 56.8115 100.825 56.7256 100.653 56.5537L91.0283 43.2334C89.3096 40.7412 89.1377 37.5615 89.1377 34.5537C89.2236 25.6162 85.7861 25.6162 84.6689 25.6162Z" fill="black"/>
</g>
<g id="Group_7">
<path id="Vector_14" d="M96.0122 63.7725C93.0044 63.7725 86.645 63.7725 86.645 59.5615C86.645 57.6709 87.5903 56.3818 89.481 55.7803C91.0278 55.2646 92.9185 55.3506 94.7231 55.3506H94.981C95.3247 55.3506 95.6685 55.6943 95.6685 56.0381C95.6685 56.3818 95.3247 56.7256 94.981 56.7256H94.7231C93.0044 56.7256 91.1997 56.7256 89.9106 57.1553C88.6216 57.585 88.02 58.3584 88.02 59.5615C88.02 62.0537 92.0591 62.3975 96.0122 62.3975C96.356 62.3975 96.6997 62.7412 96.6997 63.085C96.6997 63.4287 96.4419 63.7725 96.0122 63.7725Z" fill="black"/>
</g>
<g id="Group_8">
<path id="Vector_15" d="M100.911 49.0776C96.9575 49.0776 94.981 49.0776 91.3716 49.0776C90.4263 49.1636 89.5669 48.9058 88.7935 48.3042C88.02 47.7886 87.5044 46.9292 87.3325 46.0698C87.2466 45.5542 87.3325 45.1245 87.5044 44.6089C87.6763 44.1792 87.8482 43.7495 88.1919 43.3198C88.5357 42.9761 88.8794 42.6323 89.3091 42.4605C89.7388 42.2886 90.2544 42.1167 90.6841 42.1167C94.2935 41.7729 97.9029 41.7729 101.512 42.1167C102.028 42.1167 102.458 42.2886 102.887 42.4605C103.317 42.6323 103.747 42.9761 104.004 43.3198C104.348 43.6636 104.52 44.0933 104.692 44.6089C104.864 45.0386 104.864 45.5542 104.864 46.0698C104.692 47.0151 104.176 47.7886 103.403 48.3901C102.801 48.9058 101.856 49.1636 100.911 49.0776Z" fill="white"/>
<path id="Vector_16" d="M101.34 49.7651C101.168 49.7651 101.083 49.7651 100.911 49.7651C96.9575 49.7651 94.981 49.7651 91.4575 49.7651C90.4263 49.8511 89.3091 49.5073 88.4497 48.9058C87.5904 48.2183 86.9888 47.3589 86.731 46.2417C86.645 45.5542 86.731 45.0386 86.9029 44.437C87.0747 43.8354 87.3325 43.4058 87.7622 42.8901C88.106 42.4604 88.6216 42.1167 89.1372 41.8589C89.6529 41.6011 90.2544 41.4292 90.856 41.4292C94.4654 41.0854 98.1607 41.0854 101.77 41.4292C102.286 41.4292 102.887 41.6011 103.403 41.8589C103.918 42.1167 104.434 42.4604 104.778 42.8901C105.122 43.3198 105.465 43.8354 105.637 44.437C105.809 45.0386 105.895 45.5542 105.809 46.1558C105.637 47.2729 105.036 48.2183 104.09 48.9058C103.145 49.5073 102.286 49.7651 101.34 49.7651ZM100.911 48.3901C100.997 48.3901 100.997 48.3901 100.911 48.3901C101.77 48.4761 102.458 48.3042 103.145 47.7886C103.747 47.3589 104.176 46.6714 104.348 45.898C104.348 45.5542 104.348 45.1245 104.262 44.7808C104.176 44.437 103.918 44.0933 103.661 43.7495C103.403 43.4058 103.059 43.2339 102.715 43.062C102.372 42.8901 101.942 42.8042 101.598 42.8042C97.9888 42.4605 94.4654 42.4605 90.856 42.8042C90.4263 42.8042 89.9966 42.8901 89.6528 43.062C89.3091 43.2339 88.9654 43.4917 88.7075 43.7495C88.4497 44.0073 88.2779 44.3511 88.106 44.7808C88.02 45.1245 87.9341 45.5542 88.02 45.9839C88.1919 46.6714 88.6216 47.273 89.2232 47.7886C89.8247 48.2183 90.5982 48.4761 91.3716 48.3901C94.981 48.3901 97.0435 48.3901 100.911 48.3901Z" fill="black"/>
</g>
<g id="Group_9">
<path id="Vector_17" d="M101.341 56.1245C98.333 56.1245 94.7236 56.2104 90.7705 56.1245C88.8798 56.1245 87.0751 55.0073 86.7314 53.1167C86.6455 52.601 86.7314 52.1714 86.8173 51.6557C86.9892 51.226 87.1611 50.7104 87.5048 50.3667C87.8486 50.0229 88.1923 49.6792 88.622 49.5073C89.0517 49.3354 89.5673 49.1635 89.997 49.1635C94.0361 48.9917 99.1064 49.2495 101.856 49.1635C102.372 49.1635 102.802 49.2495 103.317 49.5073C103.747 49.6792 104.177 50.0229 104.52 50.3667C104.864 50.7104 105.036 51.226 105.208 51.6557C105.38 52.1714 105.38 52.601 105.294 53.1167C105.122 54.062 104.606 54.8354 103.833 55.437C103.145 55.9526 102.2 56.2104 101.341 56.1245Z" fill="white"/>
<path id="Vector_18" d="M96.0986 56.8981C94.4658 56.8981 92.747 56.8981 90.7705 56.8981C88.3642 56.8981 86.3876 55.4371 86.0439 53.2887C85.958 52.6871 86.0439 52.0856 86.1298 51.5699C86.3017 50.9684 86.5595 50.4527 86.9892 50.0231C87.333 49.5934 87.8486 49.2496 88.3642 48.9918C88.8798 48.734 89.4814 48.5621 90.083 48.5621C92.3173 48.4762 94.8955 48.5621 97.1298 48.5621C98.9345 48.5621 100.739 48.6481 101.942 48.5621C102.544 48.5621 103.145 48.6481 103.661 48.9059C104.177 49.1637 104.692 49.5074 105.036 49.9371C105.466 50.3668 105.724 50.8824 105.895 51.484C106.067 52.0856 106.067 52.6871 105.981 53.2027C105.81 54.3199 105.208 55.2652 104.263 55.9527C103.403 56.6402 102.286 56.8981 101.255 56.8121C99.9658 56.8121 98.1611 56.8981 96.0986 56.8981ZM93.1767 49.8512C92.1455 49.8512 91.1142 49.8512 90.1689 49.9371C89.7392 49.9371 89.3955 50.0231 89.0517 50.1949C88.708 50.3668 88.3642 50.6246 88.1064 50.8824C87.8486 51.2262 87.6767 51.5699 87.5908 51.9137C87.5048 52.2574 87.4189 52.6871 87.5048 53.1168C87.7626 54.7496 89.3955 55.5231 90.8564 55.5231C95.2392 55.609 99.0205 55.5231 101.341 55.5231H101.427C102.2 55.609 102.974 55.3512 103.575 54.9215C104.177 54.4918 104.606 53.8043 104.778 53.0309C104.864 52.6871 104.778 52.2574 104.692 51.9137C104.606 51.5699 104.435 51.2262 104.177 50.8824C103.919 50.5387 103.575 50.3668 103.231 50.1949C102.888 50.0231 102.544 49.9371 102.114 49.9371C100.911 50.0231 99.1064 49.9371 97.3017 49.9371C95.8408 49.8512 94.4658 49.8512 93.1767 49.8512Z" fill="black"/>
</g>
</g>
</g>
<defs>
<linearGradient id="paint0_linear_135_251" x1="53.1722" y1="112.187" x2="52.4184" y2="10.5899" gradientUnits="userSpaceOnUse">
<stop stop-color="#1C7EFF"/>
<stop offset="0.038" stop-color="#1F8BFB"/>
<stop offset="0.10747" stop-color="#25ACF0"/>
<stop offset="0.1648" stop-color="#2CCCE5"/>
<stop offset="0.16695" stop-color="#2DCDE5"/>
<stop offset="0.24028" stop-color="#52DCED"/>
<stop offset="0.31623" stop-color="#71E9F4"/>
<stop offset="0.39616" stop-color="#89F2F9"/>
<stop offset="0.48067" stop-color="#9AFAFC"/>
<stop offset="0.57289" stop-color="#A4FEFE"/>
<stop offset="0.68715" stop-color="#A7FFFF"/>
<stop offset="0.92189" stop-color="#9DFFB3"/>
<stop offset="1" stop-color="#99FF99"/>
</linearGradient>
<linearGradient id="paint1_linear_135_251" x1="52.9105" y1="80.1808" x2="52.9181" y2="3.72168" gradientUnits="userSpaceOnUse">
<stop stop-color="#108DB3"/>
<stop offset="1" stop-color="#4EDEB5"/>
</linearGradient>
</defs>
</svg>
