<svg width="76" height="55" viewBox="0 0 76 55" fill="none" xmlns="http://www.w3.org/2000/svg">
<g id="g3826">
<g id="g4151">
<path id="path4086" d="M0.5 53.6777H75.5V0.499512H0.5V53.6777Z" stroke="#1D1130"/>
<path id="path4088" d="M13.188 39.3698C13.058 38.896 12.8001 37.9778 11.4441 37.9778C10.656 37.9778 9.46489 38.5404 9.46489 40.7545C9.46489 42.1604 10.0603 43.4632 11.4441 43.4632C12.3548 43.4632 12.9936 42.9145 13.188 41.9529H14.8249C14.5005 43.6612 13.3844 44.8486 11.4142 44.8486C9.32547 44.8486 7.83008 43.4313 7.83008 40.7319C7.83008 37.9872 9.41199 36.5952 11.4347 36.5952C13.7862 36.5952 14.7355 38.2147 14.8249 39.3698H13.188Z" fill="#1D1130"/>
<path id="path4090" d="M16.8282 41.0355L18.7525 38.8304H20.6267L18.5811 41.0764L20.6817 44.6436H18.8504L17.4625 42.1468L16.8282 42.8076V44.6436H15.3008V38.8304H16.8282V41.0355Z" fill="#1D1130"/>
<path id="path4092" d="M26.2689 41.7255C26.2689 43.8208 24.8604 44.7959 23.3011 44.7959C21.7442 44.7959 20.3242 43.8352 20.3242 41.739C20.3242 39.6412 21.7442 38.6792 23.3011 38.6792C24.8604 38.6792 26.2689 39.6297 26.2689 41.7255ZM21.8946 41.7255C21.8946 42.4702 22.121 43.5066 23.3011 43.5066C24.4816 43.5066 24.6981 42.4816 24.6981 41.739C24.6981 40.9918 24.4816 39.9664 23.3011 39.9664C22.121 39.9664 21.8946 40.9804 21.8946 41.7255Z" fill="#1D1130"/>
<path id="path4094" d="M32.0086 38.8307V44.6442H30.4812V40.0541H28.8468V41.8467C28.8468 44.0702 28.176 44.7715 27.103 44.7715C26.836 44.7715 26.3998 44.7285 26.1738 44.6442V43.5076C26.2054 43.5301 26.3998 43.5509 26.6257 43.5509C27.0845 43.5509 27.3219 43.3251 27.3219 41.555V38.8307H32.0086Z" fill="#1D1130"/>
<path id="path4096" d="M34.3164 41.0355L36.2407 38.8304H38.115L36.0673 41.0764L38.1699 44.6436H36.3387L34.9532 42.1468L34.3164 42.8076V44.6436H32.7891V38.8304H34.3164V41.0355Z" fill="#1D1130"/>
<path id="path4098" d="M43.7567 41.7255C43.7567 43.8208 42.3507 44.7959 40.7913 44.7959C39.2319 44.7959 37.8145 43.8352 37.8145 41.739C37.8145 39.6412 39.2319 38.6792 40.7913 38.6792C42.3507 38.6792 43.7567 39.6297 43.7567 41.7255ZM39.3853 41.7255C39.3853 42.4702 39.6112 43.5066 40.7913 43.5066C41.9665 43.5066 42.1908 42.4816 42.1908 41.739C42.1908 40.9918 41.9665 39.9664 40.7913 39.9664C39.6112 39.9664 39.3853 40.9804 39.3853 41.7255Z" fill="#1D1130"/>
<path id="path4100" d="M44.252 38.8306H46.8819C48.183 38.8306 49.1346 39.3617 49.1346 40.3323C49.1346 41.0017 48.6578 41.4321 48.0501 41.5847C48.6459 41.7267 49.3077 42.1064 49.3077 43.0569C49.3077 44.1339 48.4909 44.6445 47.1714 44.6445H44.252V38.8306ZM45.7765 41.1842H46.772C47.2788 41.1842 47.6376 40.9816 47.6376 40.5258C47.6376 40.0516 47.2924 39.8789 46.7835 39.8789H45.7765V41.1842ZM45.7765 43.5966H46.8995C47.4638 43.5966 47.8131 43.4236 47.8131 42.8491C47.8131 42.3413 47.4453 42.1064 46.8819 42.1064H45.7765V43.5966Z" fill="#1D1130"/>
<path id="path4102" d="M55.4213 41.7255C55.4213 43.8208 54.0173 44.7959 52.4559 44.7959C50.8986 44.7959 49.4766 43.8352 49.4766 41.739C49.4766 39.6412 50.8986 38.6792 52.4559 38.6792C54.0173 38.6792 55.4213 39.6297 55.4213 41.7255ZM51.0474 41.7255C51.0474 42.4702 51.2774 43.5066 52.4559 43.5066C53.636 43.5066 53.8508 42.4816 53.8508 41.739C53.8508 40.9918 53.636 39.9664 52.4559 39.9664C51.2774 39.9664 51.0474 40.9804 51.0474 41.7255Z" fill="#1D1130"/>
<path id="path4104" d="M18.9318 35.2812C20.2332 35.2812 23.438 35.0537 25.8331 33.3086V34.6323H30.6653L30.6702 28.8118L32.688 26.7275L37.0803 34.6323H42.8782L36.2242 23.3375L42.7052 16.2187H36.7699L30.6702 23.2033V9.78567H25.8331V11.9085C24.3602 10.3303 21.9726 9.13672 18.2495 9.13672C10.1906 9.13672 8.67761 14.0292 8.67761 16.7678C8.67761 20.531 10.7048 22.6222 14.236 23.4766L19.2426 24.7066C21.8832 25.358 23.7714 25.8363 23.7714 27.7868C23.7714 30.3884 21.0254 31.0033 18.5554 31.0033C14.0282 31.0033 13.2749 28.3695 13.2749 26.9668H8.30078C8.30078 30.0463 9.87819 35.2812 18.9318 35.2812ZM22.226 20.4651L16.1583 18.9908C15.1266 18.7519 13.5144 18.3394 13.5144 16.3918C13.5144 14.1663 15.8819 13.4126 17.8706 13.4126C22.3974 13.4126 22.8107 16.0501 22.9452 17.1778H25.8331V21.8092C24.7735 21.1918 23.5229 20.7908 22.226 20.4651Z" fill="#1D1130"/>
</g>
</g>
</svg>
