<svg width="121" height="21" viewBox="0 0 121 21" fill="none" xmlns="http://www.w3.org/2000/svg">
<g id="Star">
<path id="Star 15" d="M9.66774 1.83118C9.99547 1.12123 11.0045 1.12123 11.3323 1.83118L13.1064 5.67424C13.24 5.96362 13.5143 6.16284 13.8308 6.20033L18.0357 6.69848C18.8127 6.79053 19.1246 7.75104 18.55 8.28204L15.4422 11.1537C15.2079 11.3701 15.103 11.6928 15.1652 12.0057L15.9903 16.1549C16.1429 16.922 15.3264 17.5155 14.6438 17.1337L10.9475 15.0663C10.6694 14.9108 10.3306 14.9108 10.0525 15.0663L6.35618 17.1337C5.67356 17.5155 4.85711 16.922 5.00967 16.1549L5.83478 12.0057C5.897 11.6928 5.7921 11.3701 5.55782 11.1537L2.45003 8.28204C1.87536 7.75104 2.18728 6.79053 2.96428 6.69848L7.16921 6.20033C7.48573 6.16284 7.76005 5.96362 7.89364 5.67424L9.66774 1.83118Z" fill="white"/>
<path id="Star 16" d="M34.6677 1.83118C34.9955 1.12123 36.0045 1.12123 36.3323 1.83118L38.1064 5.67424C38.24 5.96362 38.5143 6.16284 38.8308 6.20033L43.0357 6.69848C43.8127 6.79053 44.1246 7.75104 43.55 8.28204L40.4422 11.1537C40.2079 11.3701 40.103 11.6928 40.1652 12.0057L40.9903 16.1549C41.1429 16.922 40.3264 17.5155 39.6438 17.1337L35.9475 15.0663C35.6694 14.9108 35.3306 14.9108 35.0525 15.0663L31.3562 17.1337C30.6736 17.5155 29.8571 16.922 30.0097 16.1549L30.8348 12.0057C30.897 11.6928 30.7921 11.3701 30.5578 11.1537L27.45 8.28204C26.8754 7.75104 27.1873 6.79053 27.9643 6.69848L32.1692 6.20033C32.4857 6.16284 32.76 5.96362 32.8936 5.67424L34.6677 1.83118Z" fill="white"/>
<path id="Star 17" d="M59.6677 1.83118C59.9955 1.12123 61.0045 1.12123 61.3323 1.83118L63.1064 5.67424C63.24 5.96362 63.5143 6.16284 63.8308 6.20033L68.0357 6.69848C68.8127 6.79053 69.1246 7.75104 68.55 8.28204L65.4422 11.1537C65.2079 11.3701 65.103 11.6928 65.1652 12.0057L65.9903 16.1549C66.1429 16.922 65.3264 17.5155 64.6438 17.1337L60.9475 15.0663C60.6694 14.9108 60.3306 14.9108 60.0525 15.0663L56.3562 17.1337C55.6736 17.5155 54.8571 16.922 55.0097 16.1549L55.8348 12.0057C55.897 11.6928 55.7921 11.3701 55.5578 11.1537L52.45 8.28204C51.8754 7.75104 52.1873 6.79053 52.9643 6.69848L57.1692 6.20033C57.4857 6.16284 57.76 5.96362 57.8936 5.67424L59.6677 1.83118Z" fill="white"/>
<path id="Star 18" d="M84.6677 1.83118C84.9955 1.12123 86.0045 1.12123 86.3323 1.83118L88.1064 5.67424C88.24 5.96362 88.5143 6.16284 88.8308 6.20033L93.0357 6.69848C93.8127 6.79053 94.1246 7.75104 93.55 8.28204L90.4422 11.1537C90.2079 11.3701 90.103 11.6928 90.1652 12.0057L90.9903 16.1549C91.1429 16.922 90.3264 17.5155 89.6438 17.1337L85.9475 15.0663C85.6694 14.9108 85.3306 14.9108 85.0525 15.0663L81.3562 17.1337C80.6736 17.5155 79.8571 16.922 80.0097 16.1549L80.8348 12.0057C80.897 11.6928 80.7921 11.3701 80.5578 11.1537L77.45 8.28204C76.8754 7.75104 77.1873 6.79053 77.9643 6.69848L82.1692 6.20033C82.4857 6.16284 82.76 5.96362 82.8936 5.67424L84.6677 1.83118Z" fill="white"/>
<path id="Star 19" d="M109.668 1.83118C109.995 1.12123 111.005 1.12123 111.332 1.83118L113.106 5.67424C113.24 5.96362 113.514 6.16284 113.831 6.20033L118.036 6.69848C118.813 6.79053 119.125 7.75104 118.55 8.28204L115.442 11.1537C115.208 11.3701 115.103 11.6928 115.165 12.0057L115.99 16.1549C116.143 16.922 115.326 17.5155 114.644 17.1337L110.947 15.0663C110.669 14.9108 110.331 14.9108 110.053 15.0663L106.356 17.1337C105.674 17.5155 104.857 16.922 105.01 16.1549L105.835 12.0057C105.897 11.6928 105.792 11.3701 105.558 11.1537L102.45 8.28204C101.875 7.75104 102.187 6.79053 102.964 6.69848L107.169 6.20033C107.486 6.16284 107.76 5.96362 107.894 5.67424L109.668 1.83118Z" fill="white"/>
</g>
</svg>
