<svg width="110" height="110" viewBox="0 0 110 110" fill="none" xmlns="http://www.w3.org/2000/svg">
<g id="&#208;&#164;&#209;&#128;&#208;&#190;&#208;&#189;&#209;&#130;&#208;&#181;&#208;&#189;&#208;&#180;">
<g id="Group 2087325284">
<path id="Vector" d="M49.5914 58.0825C46.3352 58.1063 43.0962 57.6093 39.9969 56.6102C36.2044 55.358 33.84 53.6684 32.9088 52.9152C32.3792 53.4998 31.3419 54.4164 30.0318 54.4354C28.902 54.4506 27.8538 53.8122 26.9189 52.5348C26.8762 52.4763 26.8453 52.41 26.8282 52.3397C26.811 52.2693 26.8079 52.1963 26.819 52.1247C26.8301 52.0531 26.8551 51.9844 26.8928 51.9226C26.9304 51.8607 26.9798 51.8068 27.0383 51.7641C27.0967 51.7213 27.163 51.6904 27.2334 51.6733C27.3037 51.6561 27.3768 51.653 27.4484 51.6641C27.5199 51.6752 27.5886 51.7002 27.6505 51.7379C27.7124 51.7755 27.7662 51.8249 27.809 51.8834C28.5195 52.8542 29.2602 53.3416 30.0119 53.3327C31.3261 53.3166 32.3746 51.8299 32.3851 51.8149C32.4305 51.7495 32.4895 51.6947 32.558 51.6543C32.6266 51.6138 32.7031 51.5887 32.7822 51.5805C32.8614 51.5724 32.9414 51.5814 33.0167 51.6071C33.092 51.6327 33.1609 51.6743 33.2187 51.7291C33.2424 51.7515 35.6997 54.0428 40.4047 55.5834C44.7488 57.0058 51.9569 58.0615 61.6267 55.013C61.766 54.9698 61.9166 54.9836 62.0457 55.0512C62.1749 55.1189 62.2719 55.2349 62.3158 55.3739C62.3596 55.5129 62.3466 55.6636 62.2796 55.7931C62.2126 55.9226 62.0971 56.0202 61.9583 56.0648C57.2651 57.5445 53.1271 58.0825 49.5914 58.0825Z" fill="#1D1130"/>
<path id="Vector_2" d="M60.5985 88.8631L60.5947 88.8631L55.8224 88.8301C55.7499 88.8298 55.6781 88.8151 55.6113 88.7871C55.5444 88.759 55.4837 88.7179 55.4327 88.6664C55.3818 88.6148 55.3414 88.5537 55.3141 88.4865C55.2868 88.4193 55.273 88.3474 55.2735 88.2749C55.2739 88.2024 55.2888 88.1307 55.317 88.0639C55.3453 87.9971 55.3864 87.9365 55.4381 87.8856C55.4898 87.8348 55.551 87.7946 55.6182 87.7674C55.6854 87.7402 55.7574 87.7266 55.83 87.7273L60.0263 87.7563C59.9539 84.9055 60.0304 72.6085 66.2494 64.4729C66.3383 64.3567 66.4696 64.2806 66.6146 64.2612C66.7595 64.2418 66.9063 64.2809 67.0225 64.3697C67.1387 64.4585 67.2148 64.5899 67.2342 64.7348C67.2535 64.8798 67.2145 65.0265 67.1257 65.1427C60.4478 73.8783 61.1413 88.1387 61.1491 88.2817C61.1531 88.3565 61.1419 88.4314 61.1161 88.5017C61.0902 88.5721 61.0504 88.6364 60.9988 88.6908C60.9473 88.7453 60.8852 88.7886 60.8164 88.8182C60.7475 88.8478 60.6734 88.8631 60.5985 88.8631Z" fill="#1D1130"/>
<path id="Vector_3" d="M90.0481 88.8302C89.9446 88.8303 89.8432 88.8013 89.7554 88.7464C89.6677 88.6916 89.5972 88.6131 89.5519 88.5201L87.6138 84.5394C85.9623 84.1046 77.1671 81.5287 73.5575 75.1683C71.8624 72.1814 71.585 68.8127 72.7329 65.1558C72.7546 65.0867 72.7897 65.0226 72.8362 64.967C72.8827 64.9115 72.9396 64.8657 73.0038 64.8322C73.068 64.7986 73.1382 64.7781 73.2103 64.7717C73.2824 64.7653 73.3551 64.7732 73.4242 64.7948C73.4933 64.8165 73.5575 64.8516 73.613 64.8981C73.6685 64.9446 73.7144 65.0015 73.7479 65.0657C73.7814 65.1299 73.802 65.2001 73.8084 65.2722C73.8148 65.3443 73.8069 65.417 73.7852 65.4861C72.7329 68.8381 72.9785 71.9114 74.5148 74.6207C78.1816 81.0868 88.0267 83.5078 88.1257 83.5315C88.205 83.5505 88.279 83.5867 88.3426 83.6377C88.4061 83.6887 88.4576 83.7532 88.4933 83.8265L90.5434 88.0373C90.5843 88.1213 90.6031 88.2144 90.5982 88.3077C90.5933 88.401 90.5647 88.4916 90.5152 88.5708C90.4657 88.6501 90.3969 88.7155 90.3152 88.7609C90.2335 88.8062 90.1416 88.8301 90.0481 88.8302Z" fill="#1D1130"/>
<path id="Vector_4" d="M70.0866 21.9367L42.0779 62.5004C41.8932 62.7678 41.7822 63.0792 41.756 63.4031C41.7298 63.727 41.7893 64.0522 41.9286 64.3458C42.0679 64.6394 42.282 64.8913 42.5495 65.0759C42.8169 65.2606 43.1282 65.3716 43.4522 65.3978L92.5857 69.3722C92.9096 69.3984 93.2348 69.3389 93.5284 69.1996C93.822 69.0603 94.0739 68.8462 94.2585 68.5787C94.4432 68.3113 94.5542 68 94.5804 67.676C94.6066 67.3521 94.5471 67.027 94.4078 66.7333L73.283 22.1952C73.1437 21.9016 72.9295 21.6498 72.6621 21.4651C72.3947 21.2805 72.0833 21.1694 71.7594 21.1432C71.4355 21.117 71.1103 21.1766 70.8167 21.3158C70.523 21.4551 70.2712 21.6692 70.0866 21.9367Z" fill="url(#paint0_linear_619_9225)"/>
<path id="Vector_5" d="M66.4022 56.9037C66.371 56.9037 66.34 56.9025 66.3086 56.8999C64.9079 56.7866 64.2056 54.2083 64.5191 50.3312C64.5278 50.2268 64.5775 50.13 64.6574 50.0622C64.7374 49.9944 64.841 49.9611 64.9454 49.9696C65.0499 49.978 65.1468 50.0275 65.2147 50.1073C65.2827 50.1871 65.3163 50.2906 65.3081 50.3951C64.9696 54.5799 65.8973 56.0726 66.3724 56.111C66.843 56.1501 68.0031 54.8252 68.3416 50.6405C68.3458 50.5887 68.3601 50.5382 68.3838 50.4919C68.4075 50.4456 68.4401 50.4045 68.4797 50.3708C68.5192 50.3372 68.5651 50.3116 68.6145 50.2957C68.664 50.2797 68.7162 50.2737 68.768 50.2779C68.8198 50.282 68.8702 50.2964 68.9165 50.3201C68.9628 50.3438 69.0039 50.3764 69.0376 50.416C69.0713 50.4556 69.0968 50.5014 69.1128 50.5509C69.1287 50.6003 69.1348 50.6525 69.1306 50.7043C68.824 54.4944 67.7584 56.9036 66.4022 56.9037Z" fill="#1D1130"/>
<path id="Vector_6" d="M49.0494 37.1362C48.9416 37.1361 48.8361 37.1045 48.7461 37.0452C48.6561 36.9859 48.5854 36.9015 48.5428 36.8025C48.5003 36.7035 48.4877 36.5941 48.5066 36.488C48.5255 36.3819 48.5751 36.2836 48.6492 36.2054C49.7388 35.0559 50.2311 34.0098 50.073 33.1803C49.8942 32.2426 48.9283 31.7835 48.9185 31.779C48.7863 31.7178 48.6837 31.6068 48.633 31.4703C48.5824 31.3337 48.5878 31.1827 48.6481 31.0501C48.7084 30.9175 48.8187 30.8142 48.955 30.7627C49.0912 30.7112 49.2423 30.7157 49.3752 30.7751C49.4358 30.8024 50.8595 31.4614 51.1535 32.9591C51.3917 34.1725 50.8186 35.52 49.4496 36.9641C49.3982 37.0185 49.3361 37.0619 49.2673 37.0915C49.1984 37.1211 49.1243 37.1363 49.0494 37.1362Z" fill="#1D1130"/>
<path id="Vector_7" d="M78.5882 42.4979C78.5882 42.4979 74.2115 48.2724 68.8127 48.2724C63.4138 48.2724 59.0371 42.4979 59.0371 42.4979C59.0371 42.4979 63.4138 35.8267 68.8127 35.8267C74.2115 35.8267 78.5882 42.4979 78.5882 42.4979Z" fill="white"/>
<g id="Clip path group">
<mask id="mask0_619_9225" style="mask-type:luminance" maskUnits="userSpaceOnUse" x="59" y="35" width="20" height="14">
<g id="clip-path-19">
<path id="Vector_8" d="M78.5882 42.4979C78.5882 42.4979 74.2115 48.2724 68.8127 48.2724C63.4138 48.2724 59.0371 42.4979 59.0371 42.4979C59.0371 42.4979 63.4138 35.8267 68.8127 35.8267C74.2115 35.8267 78.5882 42.4979 78.5882 42.4979Z" fill="white"/>
</g>
</mask>
<g mask="url(#mask0_619_9225)">
<g id="Group">
<path id="Vector_9" d="M63.7337 47.8255C68.0448 47.8255 71.5396 44.7168 71.5396 40.882C71.5396 37.0472 68.0448 33.9385 63.7337 33.9385C59.4225 33.9385 55.9277 37.0472 55.9277 40.882C55.9277 44.7168 59.4225 47.8255 63.7337 47.8255Z" fill="#1D1130"/>
</g>
</g>
</g>
<path id="Vector_10" d="M84.3563 54.0173C84.258 54.0172 84.1616 53.9909 84.077 53.941C83.9923 53.8912 83.9225 53.8196 83.8748 53.7338C83.827 53.648 83.8031 53.5509 83.8054 53.4527C83.8077 53.3545 83.8362 53.2587 83.888 53.1752C85.3192 50.6786 86.2694 47.9356 86.6893 45.0886C87.4832 39.1526 85.2786 34.4509 80.1369 31.1142C68.4299 23.517 49.5606 36.8961 49.3715 37.0322C49.3127 37.0745 49.2461 37.1048 49.1756 37.1213C49.1051 37.1379 49.0321 37.1404 48.9606 37.1288C48.8891 37.1171 48.8206 37.0914 48.7591 37.0533C48.6975 37.0152 48.6441 36.9653 48.6018 36.9065C48.5595 36.8477 48.5292 36.7812 48.5126 36.7107C48.4961 36.6402 48.4936 36.5671 48.5053 36.4956C48.5169 36.4242 48.5426 36.3557 48.5807 36.2941C48.6189 36.2326 48.6687 36.1791 48.7275 36.1368C52.2447 33.728 56.0191 31.718 59.981 30.144C68.4307 26.845 75.6081 26.8605 80.7372 30.1891C87.6391 34.668 88.3754 40.8624 87.7777 45.2701C87.3434 48.2614 86.3412 51.142 84.8251 53.7568C84.7756 53.8366 84.7065 53.9024 84.6245 53.948C84.5424 53.9935 84.4501 54.0174 84.3563 54.0173Z" fill="#1D1130"/>
<path id="Vector_11" d="M21.5724 27.9023H45.5292C46.3031 27.9023 47.0453 28.2098 47.5925 28.757C48.1398 29.3043 48.4472 30.0465 48.4472 30.8204V50.1333H18.6543V30.8204C18.6543 30.4372 18.7298 30.0578 18.8764 29.7037C19.0231 29.3497 19.238 29.028 19.509 28.757C19.7799 28.4861 20.1016 28.2711 20.4557 28.1245C20.8097 27.9778 21.1892 27.9023 21.5724 27.9023Z" fill="white"/>
<path id="Vector_12" d="M48.4459 50.6844H18.653C18.5806 50.6844 18.5089 50.6702 18.442 50.6425C18.3751 50.6147 18.3143 50.5741 18.2631 50.5229C18.2119 50.4717 18.1712 50.4109 18.1435 50.344C18.1158 50.2771 18.1016 50.2054 18.1016 50.133V30.8201C18.1026 29.9003 18.4684 29.0184 19.1189 28.3679C19.7693 27.7175 20.6512 27.3516 21.5711 27.3506H45.5279C46.4477 27.3516 47.3296 27.7175 47.98 28.368C48.6304 29.0184 48.9963 29.9003 48.9973 30.8201V50.133C48.9973 50.2054 48.983 50.2771 48.9553 50.344C48.9276 50.4109 48.887 50.4717 48.8358 50.5229C48.7846 50.5741 48.7238 50.6147 48.6569 50.6425C48.59 50.6702 48.5183 50.6844 48.4459 50.6844ZM19.2044 49.5816H47.8944V30.8201C47.8937 30.1927 47.6442 29.5911 47.2005 29.1474C46.7568 28.7038 46.1553 28.4542 45.5279 28.4535H21.5711C20.9436 28.4542 20.3421 28.7037 19.8984 29.1474C19.4547 29.5911 19.2051 30.1927 19.2044 30.8201V49.5816Z" fill="#1D1130"/>
<path id="Vector_13" d="M45.1853 30.5791H21.9163C21.5537 30.5791 21.2598 30.8731 21.2598 31.2357V46.0098C21.2598 46.3724 21.5537 46.6664 21.9163 46.6664H45.1853C45.5479 46.6664 45.8418 46.3724 45.8418 46.0098V31.2357C45.8418 30.8731 45.5479 30.5791 45.1853 30.5791Z" fill="#1D1130"/>
<path id="Vector_14" d="M50.1141 48.8306H17.2656C16.5461 48.8306 15.9629 49.4138 15.9629 50.1333C15.9629 50.8528 16.5461 51.436 17.2656 51.436H50.1141C50.8336 51.436 51.4168 50.8528 51.4168 50.1333C51.4168 49.4138 50.8336 48.8306 50.1141 48.8306Z" fill="white"/>
<path id="Vector_15" d="M50.1148 51.9871H17.2663C16.7745 51.9871 16.3029 51.7918 15.9551 51.444C15.6074 51.0963 15.4121 50.6247 15.4121 50.133C15.4121 49.6412 15.6074 49.1696 15.9551 48.8219C16.3029 48.4742 16.7745 48.2788 17.2663 48.2788H50.1148C50.6065 48.2788 51.0781 48.4742 51.4258 48.8219C51.7736 49.1696 51.9689 49.6412 51.9689 50.133C51.9689 50.6247 51.7736 51.0963 51.4258 51.444C51.0781 51.7918 50.6065 51.9871 50.1148 51.9871ZM17.2663 49.3817C17.067 49.3817 16.8759 49.4608 16.735 49.6017C16.5941 49.7426 16.515 49.9337 16.515 50.133C16.515 50.3322 16.5941 50.5233 16.735 50.6642C16.8759 50.8051 17.067 50.8842 17.2663 50.8842H50.1148C50.314 50.8842 50.5051 50.8051 50.646 50.6642C50.7869 50.5233 50.8661 50.3322 50.8661 50.133C50.8661 49.9337 50.7869 49.7426 50.646 49.6017C50.5051 49.4608 50.314 49.3817 50.1148 49.3817H17.2663Z" fill="#1D1130"/>
<path id="Vector_16" d="M57.0704 48.6763C58.546 48.6763 59.7423 48.1934 59.7423 47.5977C59.7423 47.002 58.546 46.519 57.0704 46.519C55.5947 46.519 54.3984 47.002 54.3984 47.5977C54.3984 48.1934 55.5947 48.6763 57.0704 48.6763Z" fill="#FCA1FF"/>
<path id="Vector_17" d="M78.5877 50.0636C80.3653 50.0636 81.8064 49.5116 81.8064 48.8306C81.8064 48.1497 80.3653 47.5977 78.5877 47.5977C76.8101 47.5977 75.3691 48.1497 75.3691 48.8306C75.3691 49.5116 76.8101 50.0636 78.5877 50.0636Z" fill="#FCA1FF"/>
<path id="Vector_18" d="M33.7843 43.141C32.9569 43.141 29.0811 38.3066 29.0811 38.3066C28.6956 37.7555 28.5447 37.0738 28.6617 36.4115C28.7788 35.7492 29.1541 35.1606 29.7052 34.775C30.2562 34.3894 30.9379 34.2386 31.6002 34.3556C32.2625 34.4726 32.8512 34.8479 33.2367 35.399L33.7631 36.1512L34.2651 35.4189C34.6454 34.8642 35.2304 34.4833 35.8916 34.3599C36.5527 34.2366 37.2358 34.3809 37.7905 34.7612C38.3453 35.1415 38.7262 35.7265 38.8496 36.3877C38.9729 37.0488 38.8285 37.7319 38.4483 38.2866C38.4483 38.2866 34.6285 43.137 33.7965 43.1409L33.7843 43.141Z" fill="#FB76FF"/>
<path id="Vector_19" d="M26.5068 38.5996H23.5422C23.4373 38.5996 23.3366 38.5579 23.2624 38.4837C23.1882 38.4095 23.1465 38.3088 23.1465 38.2039C23.1465 38.0989 23.1882 37.9982 23.2624 37.924C23.3366 37.8498 23.4373 37.8081 23.5422 37.8081H26.5068C26.6117 37.8081 26.7124 37.8498 26.7866 37.924C26.8608 37.9982 26.9025 38.0989 26.9025 38.2039C26.9025 38.3088 26.8608 38.4095 26.7866 38.4837C26.7124 38.5579 26.6117 38.5996 26.5068 38.5996Z" fill="white"/>
<path id="Vector_20" d="M43.8399 38.9722H40.5793C40.4744 38.9722 40.3737 38.9305 40.2995 38.8563C40.2253 38.782 40.1836 38.6814 40.1836 38.5764C40.1836 38.4715 40.2253 38.3708 40.2995 38.2966C40.3737 38.2224 40.4744 38.1807 40.5793 38.1807H43.8399C43.9449 38.1807 44.0455 38.2224 44.1198 38.2966C44.194 38.3708 44.2357 38.4715 44.2357 38.5764C44.2357 38.6814 44.194 38.782 44.1198 38.8563C44.0455 38.9305 43.9449 38.9722 43.8399 38.9722Z" fill="white"/>
<path id="Vector_21" d="M42.209 43.0885C42.1447 43.0885 42.0813 43.0727 42.0245 43.0426L39.9707 41.9581C39.8779 41.9091 39.8084 41.8252 39.7774 41.7249C39.7464 41.6246 39.7565 41.5162 39.8056 41.4233C39.8546 41.3305 39.9384 41.261 40.0387 41.23C40.139 41.1991 40.2475 41.2092 40.3404 41.2582L42.3941 42.3427C42.4723 42.384 42.5344 42.4503 42.5705 42.531C42.6066 42.6117 42.6146 42.7022 42.5933 42.788C42.572 42.8738 42.5226 42.9501 42.4529 43.0045C42.3833 43.059 42.2974 43.0885 42.209 43.0885Z" fill="white"/>
<path id="Vector_22" d="M41.183 35.6432C41.0928 35.6432 41.0053 35.6124 40.935 35.5559C40.8647 35.4994 40.8158 35.4206 40.7964 35.3325C40.777 35.2444 40.7882 35.1523 40.8283 35.0715C40.8684 34.9907 40.9349 34.926 41.0167 34.8882L43.0603 33.9433C43.1556 33.8992 43.2644 33.8948 43.3629 33.931C43.4614 33.9673 43.5415 34.0411 43.5856 34.1364C43.6296 34.2317 43.634 34.3405 43.5978 34.4391C43.5616 34.5376 43.4877 34.6177 43.3924 34.6617L41.3489 35.6066C41.2969 35.6307 41.2403 35.6432 41.183 35.6432Z" fill="white"/>
<path id="Vector_23" d="M25.9527 42.8683C25.8643 42.8683 25.7784 42.8387 25.7087 42.7843C25.639 42.7298 25.5896 42.6536 25.5683 42.5678C25.547 42.482 25.555 42.3915 25.5911 42.3108C25.6272 42.2301 25.6894 42.1638 25.7676 42.1225L27.8214 41.038C27.9143 40.989 28.0227 40.9788 28.123 41.0098C28.2233 41.0408 28.3072 41.1103 28.3562 41.2031C28.4052 41.2959 28.4153 41.4044 28.3844 41.5047C28.3534 41.605 28.2839 41.6889 28.1911 41.7379L26.1372 42.8224C26.0804 42.8525 26.017 42.8683 25.9527 42.8683Z" fill="white"/>
<path id="Vector_24" d="M26.9801 35.4225C26.9228 35.4225 26.8662 35.41 26.8142 35.3859L24.7707 34.441C24.7235 34.4192 24.6811 34.3883 24.6459 34.3501C24.6106 34.3119 24.5832 34.2671 24.5653 34.2184C24.5474 34.1696 24.5392 34.1177 24.5413 34.0658C24.5434 34.0139 24.5557 33.9629 24.5775 33.9157C24.5993 33.8685 24.6302 33.8261 24.6684 33.7909C24.7066 33.7556 24.7514 33.7283 24.8002 33.7103C24.849 33.6924 24.9008 33.6843 24.9527 33.6864C25.0046 33.6885 25.0557 33.7008 25.1028 33.7226L27.1464 34.6674C27.2283 34.7053 27.2947 34.77 27.3348 34.8508C27.3748 34.9317 27.3862 35.0237 27.3668 35.1118C27.3474 35.1999 27.2984 35.2787 27.2281 35.3352C27.1578 35.3917 27.0703 35.4225 26.9801 35.4225Z" fill="white"/>
<path id="Vector_25" d="M64.2127 34.5845C64.2127 35.5438 63.8316 36.4638 63.1533 37.1421C62.475 37.8204 61.555 38.2015 60.5957 38.2015C61.555 38.2015 62.475 38.5825 63.1533 39.2609C63.8316 39.9392 64.2127 40.8592 64.2127 41.8185C64.2127 40.8592 64.5938 39.9392 65.2721 39.2609C65.9504 38.5825 66.8704 38.2015 67.8297 38.2015C66.8704 38.2015 65.9504 37.8204 65.2721 37.1421C64.5938 36.4638 64.2127 35.5438 64.2127 34.5845Z" fill="white"/>
<path id="Vector_26" d="M64.2127 42.0648C64.1804 42.0648 64.1484 42.0584 64.1185 42.0461C64.0887 42.0337 64.0615 42.0156 64.0386 41.9927C64.0158 41.9699 63.9976 41.9428 63.9853 41.9129C63.9729 41.883 63.9666 41.851 63.9666 41.8187C63.9656 40.925 63.6101 40.0682 62.9782 39.4362C62.3462 38.8043 61.4894 38.4488 60.5957 38.4478C60.5304 38.4478 60.4678 38.4219 60.4217 38.3757C60.3755 38.3296 60.3496 38.267 60.3496 38.2017C60.3496 38.1365 60.3755 38.0739 60.4217 38.0277C60.4678 37.9816 60.5304 37.9557 60.5957 37.9557L60.6054 37.9556C61.4974 37.952 62.3517 37.5954 62.9815 36.9637C63.6114 36.3321 63.9655 35.4767 63.9666 34.5847C63.9668 34.5196 63.9928 34.4572 64.0389 34.4112C64.085 34.3652 64.1476 34.3394 64.2127 34.3394C64.2778 34.3394 64.3403 34.3652 64.3864 34.4112C64.4326 34.4572 64.4586 34.5196 64.4588 34.5847C64.4598 35.4784 64.8152 36.3352 65.4472 36.9672C66.0791 37.5991 66.936 37.9546 67.8297 37.9556C67.862 37.9556 67.894 37.962 67.9239 37.9744C67.9537 37.9867 67.9808 38.0049 68.0037 38.0277C68.0265 38.0506 68.0447 38.0777 68.057 38.1076C68.0694 38.1374 68.0757 38.1694 68.0757 38.2017C68.0757 38.234 68.0694 38.266 68.057 38.2959C68.0447 38.3258 68.0265 38.3529 68.0037 38.3757C67.9808 38.3986 67.9537 38.4167 67.9239 38.4291C67.894 38.4414 67.862 38.4478 67.8297 38.4478H67.82C66.928 38.4514 66.0737 38.8081 65.4438 39.4397C64.814 40.0714 64.4598 40.9267 64.4588 41.8187C64.4588 41.851 64.4524 41.883 64.4401 41.9129C64.4277 41.9428 64.4095 41.9699 64.3867 41.9927C64.3638 42.0156 64.3367 42.0337 64.3068 42.0461C64.277 42.0584 64.245 42.0648 64.2127 42.0648ZM61.953 38.2017C62.4684 38.3965 62.9364 38.6988 63.326 39.0884C63.7156 39.478 64.0179 39.9461 64.2127 40.4615C64.4075 39.9461 64.7098 39.478 65.0994 39.0884C65.489 38.6988 65.957 38.3966 66.4724 38.2017C65.957 38.0069 65.489 37.7046 65.0994 37.315C64.7098 36.9254 64.4075 36.4574 64.2127 35.942C64.0179 36.4574 63.7156 36.9254 63.326 37.315C62.9364 37.7046 62.4684 38.0069 61.953 38.2017Z" fill="white"/>
<path id="Vector_27" d="M67.7226 42.4915C68.2392 42.4915 68.658 42.0727 68.658 41.556C68.658 41.0394 68.2392 40.6206 67.7226 40.6206C67.2059 40.6206 66.7871 41.0394 66.7871 41.556C66.7871 42.0727 67.2059 42.4915 67.7226 42.4915Z" fill="white"/>
</g>
</g>
<defs>
<linearGradient id="paint0_linear_619_9225" x1="50.3449" y1="28.6809" x2="78.4913" y2="85.2366" gradientUnits="userSpaceOnUse">
<stop stop-color="#FA76FF"/>
<stop offset="0.00607" stop-color="#F876FF"/>
<stop offset="0.09508" stop-color="#DD75FA"/>
<stop offset="0.18589" stop-color="#CA74F6"/>
<stop offset="0.27882" stop-color="#BF73F4"/>
<stop offset="0.37709" stop-color="#BB73F3"/>
<stop offset="0.57069" stop-color="#A55DEB"/>
<stop offset="0.83831" stop-color="#8B43E2"/>
<stop offset="1" stop-color="#823ADF"/>
</linearGradient>
</defs>
</svg>
